<svg width="142" height="223" viewBox="0 0 142 223" fill="none" xmlns="http://www.w3.org/2000/svg">
<path fill-rule="evenodd" clip-rule="evenodd" d="M84.8954 212.023C83.9087 218.118 92.0226 225.733 96.2073 222.022C100.092 218.576 103.904 214.959 106.932 211.61C117.613 199.794 126.327 186.226 126.327 186.226C126.327 186.226 158.147 130.672 129.769 63.2334C110.674 23.0698 74.449 5.2917 62.4731 0.338088C60.1649 -0.616613 57.8333 0.518681 56.8227 2.88648C53.1859 11.4082 44.2459 31.3987 35.3572 43.8883C26.4752 56.3683 10.776 71.0098 1.81754 78.9534C-1.15282 81.5873 -0.352715 87.2749 3.27284 89.3584C18.6961 98.2216 51.5066 118.646 63.5879 138.341C86.4991 164.813 88.0432 192.58 84.8954 212.023ZM94.645 27.3713C95.7057 25.9615 95.4238 23.958 94.0154 22.8964C92.6071 21.8347 90.6056 22.1168 89.545 23.5266L81.262 34.5361C80.2014 35.9458 80.4833 37.9493 81.8916 39.011C83.3 40.0727 85.3014 39.7905 86.3621 38.3808L94.645 27.3713ZM78.0791 49.3902C79.1397 47.9805 78.8578 45.977 77.4495 44.9153C76.0412 43.8536 74.0397 44.1358 72.979 45.5456L64.6961 56.555C63.6354 57.9648 63.9173 59.9683 65.3257 61.03C66.734 62.0916 68.7355 61.8095 69.7962 60.3997L78.0791 49.3902ZM61.5132 71.4092C62.5738 69.9995 62.2919 67.996 60.8836 66.9343C59.4752 65.8726 57.4737 66.1548 56.4131 67.5645L48.1302 78.574C47.0695 79.9838 47.3514 81.9872 48.7598 83.0489C50.1681 84.1106 52.1696 83.8285 53.2302 82.4187L61.5132 71.4092ZM44.9473 93.4282C46.0079 92.0184 45.726 90.0149 44.3177 88.9532C42.9093 87.8916 40.9078 88.1737 39.8472 89.5835L31.5642 100.593C30.5036 102.003 30.7855 104.006 32.1938 105.068C33.6022 106.13 35.6037 105.847 36.6643 104.438L44.9473 93.4282Z" fill="#0047FF"/>
<path d="M141.782 129.287C136.128 177.241 122.535 191.726 122.535 191.726C122.535 191.726 121.567 166.115 118.453 151.789C116.662 143.549 112.938 134.631 110.285 128.892C108.604 125.255 108.963 120.929 111.228 118.137C114.98 113.512 120.46 106.243 123.222 100.115C128.14 89.2034 129.346 62.2473 129.346 62.2473C129.346 62.2473 143.942 97.1797 141.782 129.287Z" fill="#0030B3"/>
</svg>
